HIERARCHY
ROOT SpineBase
{
  OFFSET 0.000000 0.000000 0.000000
  CHANNELS 6 Xposition Yposition Zposition Zrotation Xrotation Yrotation
  JOINT SpineMid
  {
    OFFSET 0.000000 32.249630 0.000000
    CHANNELS 3 Zrotation Xrotation Yrotation
    JOINT SpineShoulder
    {
      OFFSET -0.184265 24.026528 -1.050602
      CHANNELS 3 Zrotation Xrotation Yrotation
      JOINT Neck
      {
        OFFSET -0.238558 7.992095 -0.675226
        CHANNELS 3 Zrotation Xrotation Yrotation
        JOINT Head
        {
          OFFSET 1.919496 10.243000 4.350542
          CHANNELS 3 Zrotation Xrotation Yrotation
          End Site
          {
            OFFSET 0 0 0
          }
        }
      }
      JOINT ShoulderLeft
      {
        OFFSET 2.112704 -4.343654 -13.639214
        CHANNELS 3 Zrotation Xrotation Yrotation
        JOINT ElbowLeft
        {
          OFFSET 5.905862 -26.536045 -5.234701
          CHANNELS 3 Zrotation Xrotation Yrotation
          JOINT WristLeft
          {
            OFFSET 6.146071 -21.463617 -1.842121
            CHANNELS 3 Zrotation Xrotation Yrotation
            JOINT HandLeft
            {
              OFFSET 1.751652 -9.503750 -2.047341
              CHANNELS 3 Zrotation Xrotation Yrotation
              JOINT HandTipLeft
              {
                OFFSET 1.040193 -7.085362 1.234565
                CHANNELS 3 Zrotation Xrotation Yrotation
                End Site
                {
                  OFFSET 0 0 0
                }
              }
              JOINT ThumbLeft
              {
                OFFSET 1.387391 1.311802 1.453972
                CHANNELS 3 Zrotation Xrotation Yrotation
                End Site
                {
                  OFFSET 0 0 0
                }
              }
            }
          }
        }
      }
      JOINT ShoulderRight
      {
        OFFSET 17.281881 -8.068385 -7.851323
        CHANNELS 3 Zrotation Xrotation Yrotation
        JOINT ElbowRight
        {
          OFFSET -5.261218 -28.106284 -9.781944
          CHANNELS 3 Zrotation Xrotation Yrotation
          JOINT WristRight
          {
            OFFSET -0.609250 9.952617 23.697145
            CHANNELS 3 Zrotation Xrotation Yrotation
            JOINT HandRight
            {
              OFFSET -0.461336 0.971107 0.039020
              CHANNELS 3 Zrotation Xrotation Yrotation
              JOINT HandTipRight
              {
                OFFSET -0.973609 3.237024 3.559305
                CHANNELS 3 Zrotation Xrotation Yrotation
                End Site
                {
                  OFFSET 0 0 0
                }
              }
              JOINT ThumbRight
              {
                OFFSET -1.115403 1.188432 -2.833897
                CHANNELS 3 Zrotation Xrotation Yrotation
                End Site
                {
                  OFFSET 0 0 0
                }
              }
            }
          }
        }
      }
    }
  }
  JOINT HipLeft
  {
    OFFSET -5.081061 2.142867 -5.420806
    CHANNELS 3 Zrotation Xrotation Yrotation
    JOINT KneeLeft
    {
      OFFSET 9.624620 -40.226647 3.763781
      CHANNELS 3 Zrotation Xrotation Yrotation
      JOINT AnkleLeft
      {
        OFFSET -3.488569 -34.849085 0.313019
        CHANNELS 3 Zrotation Xrotation Yrotation
        JOINT FootLeft
        {
          OFFSET 6.491510 -5.763950 0.089687
          CHANNELS 3 Zrotation Xrotation Yrotation
          End Site
          {
            OFFSET 0 0 0
          }
        }
      }
    }
  }
  JOINT HipRight
  {
    OFFSET 7.172398 -0.443174 -0.988492
    CHANNELS 3 Zrotation Xrotation Yrotation
    JOINT KneeRight
    {
      OFFSET -5.224525 -39.401622 1.732897
      CHANNELS 3 Zrotation Xrotation Yrotation
      JOINT AnkleRight
      {
        OFFSET -15.523780 -33.334183 10.885753
        CHANNELS 3 Zrotation Xrotation Yrotation
        JOINT FootRight
        {
          OFFSET 3.862053 -8.494032 -2.130777
          CHANNELS 3 Zrotation Xrotation Yrotation
          End Site
          {
            OFFSET 0 0 0
          }
        }
      }
    }
  }
}
MOTION
Frames: 14
Frame Time: 0.033333
-100.595657 81.272429 302.655732 2.000583 0.090537 -17.507737 -1.578815 0.405279 17.529885 -1.994095 -0.046757 -0.140902 2.369393 -1.288613 -0.229148 0.000000 0.000000 0.000000 6.185871 -6.656147 -1.812925 2.339039 -6.741096 -1.634291 -12.360816 -9.762056 2.397387 19.081054 17.996615 -1.253836 0.000000 0.000000 0.000000 0.000000 0.000000 0.000000 -10.607245 13.803613 2.708270 10.341604 -22.473129 2.946975 28.338284 25.796117 -2.644205 -177.107623 -48.959075 -102.557772 0.000000 0.000000 0.000000 0.000000 0.000000 0.000000 -5.286068 -1.428949 17.180709 4.552550 -1.004886 0.353460 -3.342774 1.653073 1.018854 0.000000 0.000000 0.000000 -18.279296 -20.997872 15.381533 46.861680 26.778799 -13.042401 -11.225689 34.347422 14.602300 0.000000 0.000000 0.000000
-100.336323 81.335359 302.718900 2.226674 -0.009017 -17.946181 -1.647729 0.435751 17.976517 -2.109822 -0.011026 -0.143091 2.581017 -1.277903 -0.347300 0.000000 0.000000 0.000000 6.250852 -6.490504 -1.805172 1.825137 -5.909088 -1.371088 -10.923155 -8.664359 2.051676 16.557519 14.387048 -0.493510 0.000000 0.000000 0.000000 0.000000 0.000000 0.000000 -10.114392 13.703885 2.472719 9.898817 -22.195463 2.897377 28.183150 25.753354 -2.425615 -177.061041 -48.952429 -102.626191 0.000000 0.000000 0.000000 0.000000 0.000000 0.000000 -5.841099 -1.602157 17.562490 4.994227 -0.772375 0.379942 -4.119710 1.507275 1.070531 0.000000 0.000000 0.000000 -18.620922 -20.779164 15.776398 46.211220 26.183476 -12.410111 -10.569865 35.250742 14.731750 0.000000 0.000000 0.000000
-100.141391 81.410283 302.774307 2.371941 -0.075842 -18.755269 -1.662998 0.444753 18.792329 -2.181691 0.030766 -0.142145 2.742043 -1.336342 -0.440495 0.000000 0.000000 0.000000 6.237796 -6.350419 -1.792457 1.485855 -5.455574 -1.217413 -9.674745 -9.274724 1.486281 13.209485 14.600964 0.197981 0.000000 0.000000 0.000000 0.000000 0.000000 0.000000 -9.660881 13.568432 2.247533 9.477769 -21.890219 2.836399 28.025150 25.702878 -2.202011 -177.012007 -48.949674 -102.686755 0.000000 0.000000 0.000000 0.000000 0.000000 0.000000 -6.148643 -1.853115 18.309518 5.219825 -0.511640 0.408845 -4.850847 1.550678 1.297900 0.000000 0.000000 0.000000 -18.592884 -20.609713 16.586757 46.385646 26.030200 -12.256309 -10.841389 33.107383 14.059864 0.000000 0.000000 0.000000
-100.062633 81.447509 302.794155 2.372624 -0.087652 -19.511630 -1.597981 0.434579 19.551819 -2.219039 0.061458 -0.141520 2.904208 -1.401216 -0.511731 0.000000 0.000000 0.000000 6.231284 -6.225067 -1.774787 1.237183 -5.193031 -1.121372 -8.029969 -10.407505 0.785695 9.501100 16.237858 1.158953 0.000000 0.000000 0.000000 0.000000 0.000000 0.000000 -9.194328 13.489310 2.033836 9.067095 -21.703033 2.824657 27.918313 25.683570 -2.053209 -176.976686 -48.939426 -102.755312 0.000000 0.000000 0.000000 0.000000 0.000000 0.000000 -6.102497 -2.085481 19.016434 5.204845 -0.262404 0.431725 -5.288107 1.200368 0.984257 0.000000 0.000000 0.000000 -18.366163 -20.611530 17.352988 46.521281 26.029248 -12.246161 -10.995922 32.875053 14.060813 0.000000 0.000000 0.000000
-100.110048 81.408913 302.763281 2.232746 -0.025169 -19.888476 -1.470149 0.407097 19.927083 -2.220683 0.082303 -0.141740 3.066743 -1.528169 -0.544242 0.000000 0.000000 0.000000 6.333510 -6.188381 -1.770351 1.016172 -5.169598 -1.079787 -7.562543 -13.564552 0.033864 8.664245 20.035962 1.575880 0.000000 0.000000 0.000000 0.000000 0.000000 0.000000 -8.815244 13.574689 1.867426 8.758225 -21.828262 2.924987 27.928217 25.722137 -2.072912 -176.975277 -48.917763 -102.821388 0.000000 0.000000 0.000000 0.000000 0.000000 0.000000 -5.683040 -2.237525 19.369162 4.893595 -0.062488 0.443310 -5.571418 0.754166 0.467486 0.000000 0.000000 0.000000 -18.177166 -20.857090 17.701739 47.074038 26.264816 -12.518151 -11.266328 32.607868 14.016718 0.000000 0.000000 0.000000
-100.176479 81.378227 302.727627 2.068665 0.036511 -19.668318 -1.335142 0.404663 19.705120 -2.225755 0.098540 -0.143167 3.300888 -1.668136 -0.592331 0.000000 0.000000 0.000000 6.493429 -6.213402 -1.779129 0.944222 -5.519473 -1.135991 -7.613206 -17.182464 -0.633110 7.596628 26.491929 2.306762 0.000000 0.000000 0.000000 0.000000 0.000000 0.000000 -8.801701 13.906166 1.845294 8.784553 -22.266334 3.078883 28.010060 25.764368 -2.191233 -177.006903 -48.901573 -102.834964 0.000000 0.000000 0.000000 0.000000 0.000000 0.000000 -5.290293 -2.246537 19.149456 4.606433 0.057357 0.441297 -5.785011 0.829327 0.583936 0.000000 0.000000 0.000000 -18.076089 -20.864174 17.476411 47.170105 26.318370 -12.583353 -11.299002 32.592848 13.993137 0.000000 0.000000 0.000000
-100.286474 81.248272 302.686057 1.846981 0.101908 -18.931947 -1.179416 0.426320 18.966002 -2.231663 0.109678 -0.146304 3.507260 -1.758204 -0.621410 0.000000 0.000000 0.000000 6.713907 -6.344956 -1.804658 0.853109 -5.909954 -1.202799 -8.559123 -21.077844 -1.223201 9.471058 33.829204 2.044743 0.000000 0.000000 0.000000 0.000000 0.000000 0.000000 -9.020165 13.845212 1.981026 9.014388 -22.361424 3.096696 28.117021 25.806310 -2.343764 -177.047130 -48.881808 -102.850168 0.000000 0.000000 0.000000 0.000000 0.000000 0.000000 -4.845222 -2.110090 18.442614 4.328165 0.079466 0.422574 -5.284617 0.392036 0.055338 0.000000 0.000000 0.000000 -17.974851 -20.695305 16.765756 46.904452 26.309607 -12.557591 -11.386074 32.784255 14.128209 0.000000 0.000000 0.000000
-100.388662 81.193362 302.648628 1.636038 0.158918 -17.334784 -1.030484 0.460358 17.366299 -2.272001 0.117074 -0.152835 3.804629 -1.873004 -0.662175 0.000000 0.000000 0.000000 7.041141 -6.502585 -1.841807 0.710780 -6.466194 -1.293498 -10.133572 -25.540002 -1.921066 13.650980 40.895283 0.298267 0.000000 0.000000 0.000000 0.000000 0.000000 0.000000 -8.866061 12.606937 2.091202 8.872244 -21.388410 2.845057 28.238868 25.949072 -2.532094 -177.001816 -48.882319 -102.897219 0.000000 0.000000 0.000000 0.000000 0.000000 0.000000 -4.494750 -1.777936 16.912792 4.064187 -0.034246 0.374818 -5.780676 0.272445 -0.077500 0.000000 0.000000 0.000000 -18.061692 -20.319831 15.213757 46.300338 26.273550 -12.478330 -11.036224 33.042578 14.171806 0.000000 0.000000 0.000000
-100.532611 81.045685 302.621948 1.424983 0.186702 -16.250578 -0.901433 0.490636 16.279394 -2.246592 0.110375 -0.154478 3.804486 -1.810522 -0.641115 0.000000 0.000000 0.000000 7.376916 -6.703262 -1.905571 0.635798 -7.427767 -1.474600 -11.357999 -27.916689 -2.101866 17.433499 45.314434 -1.774525 0.000000 0.000000 0.000000 0.000000 0.000000 0.000000 -8.252869 12.607628 1.865013 8.379070 -21.438772 2.966464 28.267088 26.022380 -2.581915 -176.985956 -48.864814 -102.966140 0.000000 0.000000 0.000000 0.000000 0.000000 0.000000 -4.124291 -1.544025 15.875819 3.904783 -0.023884 0.335864 -5.834250 -0.075093 -0.415687 0.000000 0.000000 0.000000 -17.925762 -19.973356 14.204279 45.467478 26.044049 -12.198290 -10.356025 33.391949 14.053150 0.000000 0.000000 0.000000
-100.722792 80.897888 302.551985 1.208828 0.226577 -16.537153 -0.793970 0.514523 16.562767 -2.163417 0.064973 -0.152811 3.530108 -1.569340 -0.568205 0.000000 0.000000 0.000000 7.863969 -7.020507 -2.019434 0.300080 -8.567313 -1.645446 -13.235579 -29.633165 -1.989018 22.838960 48.003507 -5.108927 0.000000 0.000000 0.000000 0.000000 0.000000 0.000000 -11.746374 12.236078 3.389570 12.664663 -21.803248 -0.637113 29.737075 30.589978 -0.401101 -177.919410 -33.609969 -131.970829 0.000000 0.000000 0.000000 0.000000 0.000000 0.000000 -3.735154 -1.644857 16.141825 3.850765 0.120685 0.353577 -4.696426 -0.399053 -0.784231 0.000000 0.000000 0.000000 -18.039424 -20.785177 14.366944 47.298025 26.779806 -13.111680 -10.034663 34.803473 14.065387 0.000000 0.000000 0.000000
-101.176650 80.354457 302.409591 0.666384 0.362282 -15.766463 -0.485967 0.546149 15.784844 -1.952598 -0.013213 -0.146343 3.188459 -1.305484 -0.464136 0.000000 0.000000 0.000000 8.203639 -7.323622 -2.105498 0.176666 -9.651370 -1.844017 -14.760785 -30.583688 -1.683829 25.494824 49.786796 -6.914539 0.000000 0.000000 0.000000 0.000000 0.000000 0.000000 -10.614040 16.478233 2.575043 11.556844 -23.125756 1.945825 24.872643 24.330643 0.657716 -169.339196 -52.222923 -102.091718 0.000000 0.000000 0.000000 0.000000 0.000000 0.000000 -2.420633 -1.503079 15.431299 3.036139 0.292320 0.306927 -3.800951 -0.402366 -0.716404 0.000000 0.000000 0.000000 -16.061852 -19.380635 14.053599 42.182259 25.141771 -11.096621 -8.078500 33.764943 13.561531 0.000000 0.000000 0.000000
-101.085677 79.953249 302.493359 0.852262 0.214475 -14.529808 -0.651375 0.615300 14.549091 -1.902865 -0.034190 -0.141655 2.551521 -1.041804 -0.283540 0.000000 0.000000 0.000000 8.224397 -7.467907 -2.167080 0.427039 -10.720108 -2.091789 -15.395024 -30.172567 -1.029596 29.242372 48.648339 -9.314604 0.000000 0.000000 0.000000 0.000000 0.000000 0.000000 3.459002 20.505864 -4.667084 -2.432714 -26.272923 9.344733 29.678828 17.338846 -4.779117 -159.390842 -63.191277 -73.353911 0.000000 0.000000 0.000000 0.000000 0.000000 0.000000 -2.668078 -1.143261 14.256278 2.917701 0.166738 0.250989 -3.137345 -0.199119 -0.362264 0.000000 0.000000 0.000000 -17.166945 -19.343003 12.697319 42.400931 25.270049 -11.244019 -7.364709 33.801304 13.468406 0.000000 0.000000 0.000000
-100.611818 79.707291 302.736529 1.502552 -0.084513 -13.270229 -1.031789 0.681955 13.301196 -1.972349 0.019032 -0.135249 1.318967 -0.831592 0.096098 0.000000 0.000000 0.000000 7.987096 -7.460641 -2.209645 0.864301 -11.747177 -2.353553 -15.472768 -29.057403 -0.260399 29.202486 48.056664 -9.259369 0.000000 0.000000 0.000000 0.000000 0.000000 0.000000 16.027477 21.157975 -11.363840 -15.550819 -31.125359 16.488539 28.909972 12.883347 -11.393891 -149.355235 -68.850541 -57.170631 0.000000 0.000000 0.000000 0.000000 0.000000 0.000000 -3.925062 -0.648496 13.060924 2.467113 -0.176663 0.191391 -1.887047 0.340916 0.367022 0.000000 0.000000 0.000000 -18.440591 -18.301765 11.445201 41.491376 24.691201 -10.667503 -6.840250 31.766466 12.945109 0.000000 0.000000 0.000000
-99.838397 79.576502 303.088921 2.489615 -0.476263 -11.637344 -1.532920 0.747040 11.694826 -2.160174 0.139435 -0.128923 1.022239 -0.700779 0.071646 0.000000 0.000000 0.000000 7.590123 -7.311416 -2.233971 1.382468 -12.644718 -2.591763 -14.801304 -26.860230 0.587552 26.306553 47.233554 -7.316808 0.000000 0.000000 0.000000 0.000000 0.000000 0.000000 24.640784 19.746174 -15.711737 -25.227130 -37.924441 24.355957 20.674938 14.247901 -19.575713 -136.177112 -73.407911 -50.956794 0.000000 0.000000 0.000000 0.000000 0.000000 0.000000 -5.979133 0.070010 11.524505 3.354256 -0.791568 0.146591 -2.040098 0.697191 0.781606 0.000000 0.000000 0.000000 -19.537391 -16.052207 10.025971 37.810981 22.566297 -8.746705 -5.773622 28.744676 12.215155 0.000000 0.000000 0.000000
